REM DIRINDEX 1\2\6,1\2\7,1\2\8,1\3\9,1\3\10,1\3\11,1\4\12,1\4\13,1\4\14,1\5\15,1\5\16,1\5\17,1\5\18
REM DIRNAME cjc019,folder01,folder02,folder03,folder04,folder05,folder06,folder07,folder08,folder09,folder10,folder11,folder12,folder13,folder14,folder15,folder16,folder17
TITLE ""
FILE "2Q_t_0036-0053.mp3" MP3
  TRACK 01 AUDIO
    TITLE "13:cjc019_2127"
    INDEX 01 00:00:00
  TRACK 02 AUDIO
    TITLE "0:"
    INDEX 01 00:00:66
  TRACK 03 AUDIO
    TITLE "14:cjc019_2128"
    INDEX 01 00:01:46
  TRACK 04 AUDIO
    TITLE "0:"
    INDEX 01 00:04:44
  TRACK 05 AUDIO
    TITLE "13:cjc019_2129"
    INDEX 01 00:05:24
  TRACK 06 AUDIO
    TITLE "0:"
    INDEX 01 00:06:26
  TRACK 07 AUDIO
    TITLE "14:cjc019_2130"
    INDEX 01 00:07:09
  TRACK 08 AUDIO
    TITLE "0:"
    INDEX 01 00:10:41
  TRACK 09 AUDIO
    TITLE "13:cjc019_2131"
    INDEX 01 00:11:21
  TRACK 10 AUDIO
    TITLE "0:"
    INDEX 01 00:12:65
  TRACK 11 AUDIO
    TITLE "14:cjc019_2132"
    INDEX 01 00:13:39
  TRACK 12 AUDIO
    TITLE "0:"
    INDEX 01 00:16:24
  TRACK 13 AUDIO
    TITLE "13:cjc019_2133"
    INDEX 01 00:16:71
  TRACK 14 AUDIO
    TITLE "0:"
    INDEX 01 00:18:17
  TRACK 15 AUDIO
    TITLE "14:cjc019_2134"
    INDEX 01 00:18:68
  TRACK 16 AUDIO
    TITLE "0:"
    INDEX 01 00:20:51
  TRACK 17 AUDIO
    TITLE "13:cjc019_2135"
    INDEX 01 00:21:25
  TRACK 18 AUDIO
    TITLE "0:"
    INDEX 01 00:22:32
  TRACK 19 AUDIO
    TITLE "14:cjc019_2136"
    INDEX 01 00:23:14
  TRACK 20 AUDIO
    TITLE "0:"
    INDEX 01 00:25:72
  TRACK 21 AUDIO
    TITLE "13:cjc019_2137"
    INDEX 01 00:26:46
  TRACK 22 AUDIO
    TITLE "0:"
    INDEX 01 00:27:65
  TRACK 23 AUDIO
    TITLE "14:cjc019_2138"
    INDEX 01 00:28:47
  TRACK 24 AUDIO
    TITLE "0:"
    INDEX 01 00:31:69
  TRACK 25 AUDIO
    TITLE "13:cjc019_2139"
    INDEX 01 00:32:45
  TRACK 26 AUDIO
    TITLE "0:"
    INDEX 01 00:33:60
  TRACK 27 AUDIO
    TITLE "14:cjc019_2140"
    INDEX 01 00:34:38
  TRACK 28 AUDIO
    TITLE "0:"
    INDEX 01 00:37:56
  TRACK 29 AUDIO
    TITLE "13:cjc019_2141"
    INDEX 01 00:38:33
  TRACK 30 AUDIO
    TITLE "0:"
    INDEX 01 00:39:41
  TRACK 31 AUDIO
    TITLE "14:cjc019_2142"
    INDEX 01 00:40:15
  TRACK 32 AUDIO
    TITLE "0:"
    INDEX 01 00:43:35
  TRACK 33 AUDIO
    TITLE "13:cjc019_2143"
    INDEX 01 00:44:12
  TRACK 34 AUDIO
    TITLE "0:"
    INDEX 01 00:45:35
  TRACK 35 AUDIO
    TITLE "14:cjc019_2144"
    INDEX 01 00:46:17
  TRACK 36 AUDIO
    TITLE "0:"
    INDEX 01 00:49:39
  TRACK 37 AUDIO
    TITLE "13:cjc019_2145"
    INDEX 01 00:50:15
  TRACK 38 AUDIO
    TITLE "0:"
    INDEX 01 00:51:32
  TRACK 39 AUDIO
    TITLE "14:cjc019_2146"
    INDEX 01 00:52:12
  TRACK 40 AUDIO
    TITLE "0:"
    INDEX 01 00:53:39
  TRACK 41 AUDIO
    TITLE "13:cjc019_2147"
    INDEX 01 00:54:09
  TRACK 42 AUDIO
    TITLE "0:"
    INDEX 01 00:55:24
  TRACK 43 AUDIO
    TITLE "14:cjc019_2148"
    INDEX 01 00:56:00
  TRACK 44 AUDIO
    TITLE "0:"
    INDEX 01 00:58:71
  TRACK 45 AUDIO
    TITLE "13:cjc019_2149"
    INDEX 01 00:59:51
  TRACK 46 AUDIO
    TITLE "0:"
    INDEX 01 01:00:68
  TRACK 47 AUDIO
    TITLE "14:cjc019_2150"
    INDEX 01 01:01:48
  TRACK 48 AUDIO
    TITLE "0:"
    INDEX 01 01:03:20
  TRACK 49 AUDIO
    TITLE "13:cjc019_2151"
    INDEX 01 01:03:67
  TRACK 50 AUDIO
    TITLE "0:"
    INDEX 01 01:04:74
  TRACK 51 AUDIO
    TITLE "14:cjc019_2152"
    INDEX 01 01:05:50
  TRACK 52 AUDIO
    TITLE "0:"
    INDEX 01 01:07:21
  TRACK 53 AUDIO
    TITLE "13:cjc019_2153"
    INDEX 01 01:07:72
  TRACK 54 AUDIO
    TITLE "0:"
    INDEX 01 01:09:10
  TRACK 55 AUDIO
    TITLE "14:cjc019_2154"
    INDEX 01 01:09:65
  TRACK 56 AUDIO
    TITLE "0:"
    INDEX 01 01:13:02
  TRACK 57 AUDIO
    TITLE "13:cjc019_2155"
    INDEX 01 01:13:57
  TRACK 58 AUDIO
    TITLE "0:"
    INDEX 01 01:14:74
  TRACK 59 AUDIO
    TITLE "14:cjc019_2156"
    INDEX 01 01:15:52
  TRACK 60 AUDIO
    TITLE "0:"
    INDEX 01 01:17:63
  TRACK 61 AUDIO
    TITLE "13:cjc019_2157"
    INDEX 01 01:18:39
  TRACK 62 AUDIO
    TITLE "0:"
    INDEX 01 01:19:72
  TRACK 63 AUDIO
    TITLE "14:cjc019_2158"
    INDEX 01 01:20:46
  TRACK 64 AUDIO
    TITLE "0:"
    INDEX 01 01:23:65
  TRACK 65 AUDIO
    TITLE "13:cjc019_2159"
    INDEX 01 01:24:39
  TRACK 66 AUDIO
    TITLE "0:"
    INDEX 01 01:25:53
  TRACK 67 AUDIO
    TITLE "14:cjc019_2160"
    INDEX 01 01:26:29
  TRACK 68 AUDIO
    TITLE "0:"
    INDEX 01 01:27:57
  TRACK 69 AUDIO
    TITLE "13:cjc019_2161"
    INDEX 01 01:28:29
  TRACK 70 AUDIO
    TITLE "0:"
    INDEX 01 01:29:45
  TRACK 71 AUDIO
    TITLE "14:cjc019_2162"
    INDEX 01 01:30:22
  TRACK 72 AUDIO
    TITLE "0:"
    INDEX 01 01:31:65
